<?xml version="1.0" encoding="UTF-8"?>
<svg xmlns="http://www.w3.org/2000/svg" xmlns:xlink="http://www.w3.org/1999/xlink" width="30px" height="30px" viewBox="0 0 30 30" version="1.1">
<g id="surface1">
<path style=" stroke:none;fill-rule:evenodd;fill:rgb(49.019608%,33.72549%,84.313725%);fill-opacity:1;" d="M 22.09375 18.925781 C 18.90625 20.796875 15.03125 22.082031 11.445312 22.582031 C 11.238281 23.308594 10.78125 23.929688 10.164062 24.332031 C 11.125 26.382812 12.507812 28.246094 14.175781 29.933594 C 18.886719 30.160156 23.625 28.175781 26.742188 24.171875 C 26.796875 24.097656 26.84375 24.019531 26.898438 23.949219 C 26.4375 22.234375 25.683594 20.601562 24.75 18.988281 C 24.582031 19.039062 24.421875 19.078125 24.261719 19.105469 C 23.992188 19.179688 23.714844 19.234375 23.425781 19.234375 C 22.945312 19.234375 22.5 19.117188 22.09375 18.925781 Z M 22.09375 18.925781 "/>
<path style=" stroke:none;fill-rule:evenodd;fill:rgb(49.019608%,33.72549%,84.313725%);fill-opacity:1;" d="M 16.96875 10.296875 C 15.765625 9.421875 14.503906 8.636719 13.214844 7.941406 C 12.742188 9.074219 11.625 9.867188 10.316406 9.867188 C 10.082031 9.867188 9.855469 9.839844 9.636719 9.789062 C 8.875 12.667969 8.46875 15.71875 8.679688 18.589844 C 10.113281 18.699219 11.269531 19.746094 11.53125 21.128906 C 14.707031 20.605469 18.035156 19.480469 20.84375 17.871094 C 20.492188 17.363281 20.285156 16.75 20.285156 16.089844 C 20.285156 15.316406 20.578125 14.617188 21.042969 14.070312 C 19.816406 12.691406 18.4375 11.363281 16.96875 10.296875 Z M 16.96875 10.296875 "/>
<path style=" stroke:none;fill-rule:evenodd;fill:rgb(49.019608%,33.72549%,84.313725%);fill-opacity:1;" d="M 7.5 18.730469 C 7.242188 15.664062 7.695312 12.371094 8.515625 9.292969 C 7.707031 8.722656 7.175781 7.789062 7.175781 6.726562 C 7.175781 6.359375 7.25 6.003906 7.371094 5.671875 C 6.140625 5.445312 4.910156 5.300781 3.671875 5.210938 C 3.503906 5.40625 3.324219 5.59375 3.167969 5.800781 C -0.0742188 9.96875 -0.757812 15.308594 0.859375 19.949219 C 2.304688 20.566406 3.796875 20.976562 5.355469 21.199219 C 5.546875 20.027344 6.390625 19.082031 7.5 18.730469 Z M 7.5 18.730469 "/>
<path style=" stroke:none;fill-rule:evenodd;fill:rgb(49.019608%,33.72549%,84.313725%);fill-opacity:1;" d="M 26.113281 18.167969 C 26.0625 18.234375 25.996094 18.292969 25.933594 18.355469 C 26.746094 19.734375 27.433594 21.132812 27.910156 22.605469 C 30.003906 19.0625 30.480469 14.921875 29.46875 11.128906 C 29.300781 11.378906 29.140625 11.628906 28.960938 11.871094 C 28.144531 12.996094 27.320312 14.152344 26.421875 15.191406 C 26.507812 15.476562 26.566406 15.777344 26.566406 16.089844 L 26.566406 16.097656 C 26.722656 16.800781 26.589844 17.558594 26.113281 18.167969 Z M 26.113281 18.167969 "/>
<path style=" stroke:none;fill-rule:evenodd;fill:rgb(49.019608%,33.72549%,84.313725%);fill-opacity:1;" d="M 13.433594 6.464844 C 14.929688 7.238281 16.402344 8.148438 17.800781 9.164062 C 19.375 10.308594 20.851562 11.738281 22.160156 13.21875 C 22.546875 13.046875 22.972656 12.949219 23.425781 12.949219 C 24.363281 12.949219 25.199219 13.371094 25.773438 14.019531 C 26.53125 13.097656 27.242188 12.105469 27.949219 11.132812 C 28.3125 10.632812 28.648438 10.117188 28.96875 9.597656 C 28.023438 7.136719 26.433594 4.898438 24.203125 3.164062 C 21.308594 0.910156 17.839844 -0.105469 14.4375 0.0234375 C 14.222656 0.296875 14.011719 0.566406 13.804688 0.84375 C 13.050781 1.878906 12.417969 2.871094 11.855469 3.914062 C 11.925781 3.96875 11.972656 4.039062 12.042969 4.101562 C 12.824219 4.621094 13.347656 5.480469 13.433594 6.464844 Z M 13.433594 6.464844 "/>
<path style=" stroke:none;fill-rule:evenodd;fill:rgb(49.019608%,33.72549%,84.313725%);fill-opacity:1;" d="M 5.398438 22.433594 C 4.066406 22.25 2.769531 21.972656 1.515625 21.519531 C 2.488281 23.535156 3.914062 25.371094 5.800781 26.839844 C 7.800781 28.394531 10.070312 29.355469 12.402344 29.765625 C 11.050781 28.234375 9.941406 26.566406 9.117188 24.777344 C 8.902344 24.824219 8.675781 24.851562 8.445312 24.851562 C 6.960938 24.851562 5.726562 23.816406 5.398438 22.433594 Z M 5.398438 22.433594 "/>
<path style=" stroke:none;fill-rule:evenodd;fill:rgb(49.019608%,33.72549%,84.313725%);fill-opacity:1;" d="M 8.464844 4.203125 C 9.046875 3.5625 9.894531 3.285156 10.710938 3.421875 C 11.296875 2.324219 11.957031 1.28125 12.738281 0.195312 C 9.816406 0.640625 7.035156 1.949219 4.777344 4.0625 C 5.882812 4.183594 6.980469 4.324219 8.078125 4.535156 C 8.195312 4.414062 8.328125 4.308594 8.464844 4.203125 Z M 8.464844 4.203125 "/>
</g>
</svg>
