<!DOCTYPE svg PUBLIC "-//W3C//DTD SVG 1.1//EN" "http://www.w3.org/Graphics/SVG/1.1/DTD/svg11.dtd">
<!-- Uploaded to: SVG Repo, www.svgrepo.com, Transformed by: SVG Repo Mixer Tools -->
<svg width="800px" height="800px" viewBox="-11.59 0 70.804 70.804" xmlns="http://www.w3.org/2000/svg" fill="#7d56d7">
<g id="SVGRepo_bgCarrier" stroke-width="0"/>
<g id="SVGRepo_tracerCarrier" stroke-linecap="round" stroke-linejoin="round"/>
<g id="SVGRepo_iconCarrier"> <g id="Group_5" data-name="Group 5" transform="translate(-812.296 -152.922)"> <line id="Line_2" data-name="Line 2" x2="13.298" y2="8.679" transform="translate(819.601 164.636)" fill="none" stroke="#ff4dde" stroke-miterlimit="10" stroke-width="3"/> <path id="Path_12" data-name="Path 12" d="M816.654,165.358,857.471,192a1.905,1.905,0,0,1,0,3.3l-40.817,26.638a1.9,1.9,0,0,1-2.858-1.65V167.008A1.9,1.9,0,0,1,816.654,165.358Z" fill="none" stroke="#7d56d7" stroke-linecap="round" stroke-miterlimit="10" stroke-width="3" opacity="0.15"/> <path id="Path_13" data-name="Path 13" d="M816.654,154.712l40.817,26.639a1.905,1.905,0,0,1,0,3.3L816.654,211.29a1.905,1.905,0,0,1-2.858-1.65V156.362A1.905,1.905,0,0,1,816.654,154.712Z" fill="none" stroke="#7d56d7" stroke-linecap="round" stroke-miterlimit="10" stroke-width="3"/> </g> </g>
</svg>