<?xml version="1.0" encoding="UTF-8"?>
<svg xmlns="http://www.w3.org/2000/svg" xmlns:xlink="http://www.w3.org/1999/xlink" width="350px" height="350px" viewBox="0 0 350 350" version="1.1">
<g id="surface1">
<path style=" stroke:none;fill-rule:evenodd;fill:rgb(49.019608%,33.72549%,84.313725%);fill-opacity:1;" d="M 257.753906 220.804688 C 220.585938 242.636719 175.371094 257.644531 133.546875 263.460938 C 131.097656 271.949219 125.804688 279.167969 118.585938 283.894531 C 129.785156 307.804688 145.90625 329.546875 165.375 349.234375 C 220.324219 351.859375 275.648438 328.714844 311.980469 281.992188 C 312.617188 281.160156 313.183594 280.242188 313.796875 279.386719 C 308.460938 259.394531 299.621094 240.363281 288.75 221.550781 C 286.78125 222.117188 284.898438 222.554688 283.039062 222.90625 C 279.914062 223.78125 276.675781 224.394531 273.285156 224.394531 C 267.707031 224.394531 262.5 223.039062 257.753906 220.804688 Z M 257.753906 220.804688 "/>
<path style=" stroke:none;fill-rule:evenodd;fill:rgb(49.019608%,33.72549%,84.313725%);fill-opacity:1;" d="M 197.992188 120.136719 C 183.945312 109.921875 169.203125 100.777344 154.152344 92.664062 C 148.640625 105.875 135.601562 115.128906 120.355469 115.128906 C 117.621094 115.128906 114.996094 114.777344 112.4375 114.210938 C 103.535156 147.789062 98.789062 183.378906 101.257812 216.890625 C 117.972656 218.160156 131.492188 230.386719 134.507812 246.507812 C 171.585938 240.40625 210.414062 227.28125 243.164062 208.492188 C 239.09375 202.5625 236.664062 195.429688 236.664062 187.730469 C 236.664062 178.695312 240.078125 170.539062 245.480469 164.148438 C 231.175781 148.050781 215.097656 132.585938 197.992188 120.136719 Z M 197.992188 120.136719 "/>
<path style=" stroke:none;fill-rule:evenodd;fill:rgb(49.019608%,33.72549%,84.313725%);fill-opacity:1;" d="M 87.5 218.507812 C 84.503906 182.765625 89.773438 144.308594 99.335938 108.433594 C 89.929688 101.785156 83.738281 90.890625 83.738281 78.488281 C 83.738281 74.179688 84.589844 70.042969 86.011719 66.195312 C 71.664062 63.523438 57.269531 61.863281 42.832031 60.789062 C 40.882812 63.066406 38.785156 65.253906 36.945312 67.660156 C -0.875 116.308594 -8.859375 178.609375 10.039062 232.75 C 26.90625 239.945312 44.296875 244.714844 62.476562 247.320312 C 64.726562 233.648438 74.550781 222.644531 87.5 218.507812 Z M 87.5 218.507812 "/>
<path style=" stroke:none;fill-rule:evenodd;fill:rgb(49.019608%,33.72549%,84.313725%);fill-opacity:1;" d="M 304.675781 211.945312 C 304.039062 212.757812 303.273438 213.414062 302.574219 214.132812 C 312.046875 230.234375 320.054688 246.554688 325.609375 263.746094 C 350.042969 222.402344 355.601562 174.082031 343.808594 129.828125 C 341.839844 132.738281 339.960938 135.667969 337.882812 138.492188 C 328.34375 151.636719 318.742188 165.113281 308.261719 177.253906 C 309.246094 180.578125 309.925781 184.054688 309.925781 187.730469 L 309.925781 187.820312 C 311.761719 196 310.210938 204.859375 304.675781 211.945312 Z M 304.675781 211.945312 "/>
<path style=" stroke:none;fill-rule:evenodd;fill:rgb(49.019608%,33.72549%,84.313725%);fill-opacity:1;" d="M 156.710938 75.402344 C 174.191406 84.460938 191.363281 95.046875 207.679688 106.902344 C 226.054688 120.269531 243.273438 136.9375 258.519531 154.242188 C 263.046875 152.226562 268.011719 151.070312 273.304688 151.070312 C 284.242188 151.070312 293.976562 155.992188 300.695312 163.582031 C 309.53125 152.820312 317.820312 141.226562 326.089844 129.894531 C 330.335938 124.03125 334.226562 118.015625 337.992188 111.957031 C 326.921875 83.277344 308.371094 57.136719 282.382812 36.902344 C 248.585938 10.609375 208.140625 -1.246094 168.460938 0.261719 C 165.945312 3.457031 163.449219 6.605469 161.042969 9.867188 C 152.273438 21.941406 144.878906 33.492188 138.292969 45.675781 C 139.148438 46.308594 139.695312 47.117188 140.480469 47.863281 C 149.601562 53.898438 155.726562 63.917969 156.710938 75.402344 Z M 156.710938 75.402344 "/>
<path style=" stroke:none;fill-rule:evenodd;fill:rgb(49.019608%,33.72549%,84.313725%);fill-opacity:1;" d="M 62.976562 261.734375 C 47.425781 259.589844 32.308594 256.351562 17.695312 251.082031 C 29.050781 274.597656 45.652344 295.992188 67.679688 313.117188 C 91 331.253906 117.492188 342.496094 144.703125 347.265625 C 128.910156 329.394531 116.003906 309.945312 106.355469 289.078125 C 103.839844 289.601562 101.238281 289.953125 98.546875 289.953125 C 81.222656 289.929688 66.804688 277.878906 62.976562 261.734375 Z M 62.976562 261.734375 "/>
<path style=" stroke:none;fill-rule:evenodd;fill:rgb(49.019608%,33.72549%,84.313725%);fill-opacity:1;" d="M 98.742188 49.042969 C 105.546875 41.5625 115.433594 38.347656 124.972656 39.945312 C 131.796875 27.125 139.496094 14.941406 148.617188 2.273438 C 114.539062 7.480469 82.074219 22.75 55.714844 47.382812 C 68.621094 48.824219 81.441406 50.445312 94.238281 52.894531 C 95.617188 51.492188 97.148438 50.246094 98.742188 49.042969 Z M 98.742188 49.042969 "/>
</g>
</svg>
